<svg height="1024" width="1024" xmlns="http://www.w3.org/2000/svg">
	<polygon points="953.66144,107.98227199999997 953.66144,235.71603200000004 971.245568,235.71603200000004" style="fill: rgb(200, 200, 200); stroke: black; stroke-width: 1" />
	<polygon points="971.245568,235.71603200000004 971.245568,107.98227199999997 953.66144,107.98227199999997" style="fill: rgb(200, 200, 200); stroke: black; stroke-width: 1" />
	<polygon points="525.093888,226.80825600000003 525.093888,96.77152000000001 507.512832,96.76025600000003" style="fill: rgb(200, 200, 200); stroke: black; stroke-width: 1" />
	<polygon points="507.512832,96.76025600000003 507.512832,226.79699200000005 525.093888,226.80825600000003" style="fill: rgb(200, 200, 200); stroke: black; stroke-width: 1" />
	<polygon points="489.930752,96.77152000000001 489.930752,226.80825600000003 507.512832,226.79699200000005" style="fill: rgb(200, 200, 200); stroke: black; stroke-width: 1" />
	<polygon points="507.512832,226.79699200000005 507.512832,96.76025600000003 489.930752,96.77152000000001" style="fill: rgb(200, 200, 200); stroke: black; stroke-width: 1" />
	<polygon points="678.581248,904.304064 527.246336,1023.0 786.199552,1023.0" style="fill: rgb(200, 200, 200); stroke: black; stroke-width: 1" />
	<polygon points="550.847488,882.321856 527.246336,759.2298880000001 527.246336,1023.0" style="fill: rgb(200, 200, 200); stroke: black; stroke-width: 1" />
	<polygon points="678.581248,877.9268480000001 786.199552,759.2298880000001 527.246336,759.2298880000001" style="fill: rgb(200, 200, 200); stroke: black; stroke-width: 1" />
	<polygon points="739.004416,904.304064 786.199552,1023.0 786.199552,759.2298880000001" style="fill: rgb(200, 200, 200); stroke: black; stroke-width: 1" />
	<polygon points="550.847488,882.321856 678.581248,882.321856 678.581248,877.9268480000001" style="fill: rgb(200, 200, 200); stroke: black; stroke-width: 1" />
	<polygon points="527.246336,1023.0 550.847488,899.907008 550.847488,882.321856" style="fill: rgb(200, 200, 200); stroke: black; stroke-width: 1" />
	<polygon points="678.581248,904.304064 678.581248,899.907008 550.847488,899.907008" style="fill: rgb(200, 200, 200); stroke: black; stroke-width: 1" />
	<polygon points="786.199552,1023.0 739.004416,904.304064 678.581248,904.304064" style="fill: rgb(200, 200, 200); stroke: black; stroke-width: 1" />
	<polygon points="786.199552,759.2298880000001 739.004416,877.9268480000001 739.004416,904.304064" style="fill: rgb(200, 200, 200); stroke: black; stroke-width: 1" />
	<polygon points="786.199552,759.2298880000001 678.581248,877.9268480000001 739.004416,877.9268480000001" style="fill: rgb(200, 200, 200); stroke: black; stroke-width: 1" />
	<polygon points="550.847488,899.907008 527.246336,1023.0 678.581248,904.304064" style="fill: rgb(200, 200, 200); stroke: black; stroke-width: 1" />
	<polygon points="678.581248,877.9268480000001 527.246336,759.2298880000001 550.847488,882.321856" style="fill: rgb(200, 200, 200); stroke: black; stroke-width: 1" />
	<polygon points="785.114112,442.60191999999995 807.067648,442.60191999999995 807.067648,416.224704" style="fill: rgb(200, 200, 200); stroke: black; stroke-width: 1" />
	<polygon points="807.067648,416.224704 785.114112,416.224704 785.114112,442.60191999999995" style="fill: rgb(200, 200, 200); stroke: black; stroke-width: 1" />
	<polygon points="328.745984,103.93849599999999 306.76992,103.95283199999994 306.76992,165.464512" style="fill: rgb(200, 200, 200); stroke: black; stroke-width: 1" />
	<polygon points="306.76992,165.464512 328.745984,165.45119999999997 328.745984,103.93849599999999" style="fill: rgb(200, 200, 200); stroke: black; stroke-width: 1" />
	<polygon points="811.410432,420.62073599999997 828.78464,420.62073599999997 828.78464,416.224704" style="fill: rgb(200, 200, 200); stroke: black; stroke-width: 1" />
	<polygon points="828.78464,416.224704 807.067648,416.224704 811.410432,420.62073599999997" style="fill: rgb(200, 200, 200); stroke: black; stroke-width: 1" />
	<polygon points="807.067648,416.224704 807.067648,442.60191999999995 811.410432,420.62073599999997" style="fill: rgb(200, 200, 200); stroke: black; stroke-width: 1" />
	<polygon points="807.067648,442.60191999999995 828.78464,442.60191999999995 811.410432,438.20588799999996" style="fill: rgb(200, 200, 200); stroke: black; stroke-width: 1" />
	<polygon points="828.78464,442.60191999999995 828.78464,438.20588799999996 811.410432,438.20588799999996" style="fill: rgb(200, 200, 200); stroke: black; stroke-width: 1" />
	<polygon points="811.410432,438.20588799999996 811.410432,420.62073599999997 807.067648,442.60191999999995" style="fill: rgb(200, 200, 200); stroke: black; stroke-width: 1" />
	<polygon points="350.723072,103.95283199999994 328.745984,103.93849599999999 328.745984,165.45017600000006" style="fill: rgb(200, 200, 200); stroke: black; stroke-width: 1" />
	<polygon points="328.745984,165.45017600000006 350.723072,165.464512 350.723072,103.95283199999994" style="fill: rgb(200, 200, 200); stroke: black; stroke-width: 1" />
	<polygon points="527.246336,688.8913279999999 544.61952,688.8913279999999 544.61952,671.3072" style="fill: rgb(200, 200, 200); stroke: black; stroke-width: 1" />
	<polygon points="544.61952,671.3072 527.246336,671.3072 527.246336,688.8913279999999" style="fill: rgb(200, 200, 200); stroke: black; stroke-width: 1" />
	<polygon points="263.770112,671.2027519999999 263.770112,319.960512 237.392896,416.550336" style="fill: rgb(200, 200, 200); stroke: black; stroke-width: 1" />
	<polygon points="263.770112,319.960512 0.0,319.960512 96.715776,346.30496000000005" style="fill: rgb(200, 200, 200); stroke: black; stroke-width: 1" />
	<polygon points="0.0,319.960512 0.0,671.2027519999999 26.377216,416.550336" style="fill: rgb(200, 200, 200); stroke: black; stroke-width: 1" />
	<polygon points="0.0,671.2027519999999 263.770112,671.2027519999999 167.054336,644.859328" style="fill: rgb(200, 200, 200); stroke: black; stroke-width: 1" />
	<polygon points="26.377216,416.550336 26.377216,346.30496000000005 0.0,319.960512" style="fill: rgb(200, 200, 200); stroke: black; stroke-width: 1" />
	<polygon points="26.377216,346.30496000000005 96.715776,346.30496000000005 0.0,319.960512" style="fill: rgb(200, 200, 200); stroke: black; stroke-width: 1" />
	<polygon points="96.715776,346.30496000000005 96.715776,416.550336 167.054336,416.550336" style="fill: rgb(200, 200, 200); stroke: black; stroke-width: 1" />
	<polygon points="96.715776,416.550336 26.377216,416.550336 26.377216,574.612928" style="fill: rgb(200, 200, 200); stroke: black; stroke-width: 1" />
	<polygon points="237.392896,416.550336 167.054336,416.550336 237.392896,574.612928" style="fill: rgb(200, 200, 200); stroke: black; stroke-width: 1" />
	<polygon points="167.054336,416.550336 167.054336,346.30496000000005 96.715776,346.30496000000005" style="fill: rgb(200, 200, 200); stroke: black; stroke-width: 1" />
	<polygon points="167.054336,346.30496000000005 237.392896,346.30496000000005 263.770112,319.960512" style="fill: rgb(200, 200, 200); stroke: black; stroke-width: 1" />
	<polygon points="237.392896,346.30496000000005 237.392896,416.550336 263.770112,319.960512" style="fill: rgb(200, 200, 200); stroke: black; stroke-width: 1" />
	<polygon points="237.392896,574.612928 237.392896,644.859328 263.770112,671.2027519999999" style="fill: rgb(200, 200, 200); stroke: black; stroke-width: 1" />
	<polygon points="237.392896,644.859328 167.054336,644.859328 263.770112,671.2027519999999" style="fill: rgb(200, 200, 200); stroke: black; stroke-width: 1" />
	<polygon points="167.054336,644.859328 167.054336,574.612928 96.715776,574.612928" style="fill: rgb(200, 200, 200); stroke: black; stroke-width: 1" />
	<polygon points="167.054336,574.612928 237.392896,574.612928 167.054336,416.550336" style="fill: rgb(200, 200, 200); stroke: black; stroke-width: 1" />
	<polygon points="26.377216,574.612928 96.715776,574.612928 96.715776,416.550336" style="fill: rgb(200, 200, 200); stroke: black; stroke-width: 1" />
	<polygon points="96.715776,574.612928 96.715776,644.859328 167.054336,644.859328" style="fill: rgb(200, 200, 200); stroke: black; stroke-width: 1" />
	<polygon points="96.715776,644.859328 26.377216,644.859328 0.0,671.2027519999999" style="fill: rgb(200, 200, 200); stroke: black; stroke-width: 1" />
	<polygon points="26.377216,644.859328 26.377216,574.612928 0.0,671.2027519999999" style="fill: rgb(200, 200, 200); stroke: black; stroke-width: 1" />
	<polygon points="263.770112,671.2027519999999 237.392896,416.550336 237.392896,574.612928" style="fill: rgb(200, 200, 200); stroke: black; stroke-width: 1" />
	<polygon points="263.770112,319.960512 96.715776,346.30496000000005 167.054336,346.30496000000005" style="fill: rgb(200, 200, 200); stroke: black; stroke-width: 1" />
	<polygon points="26.377216,416.550336 0.0,671.2027519999999 26.377216,574.612928" style="fill: rgb(200, 200, 200); stroke: black; stroke-width: 1" />
	<polygon points="0.0,671.2027519999999 167.054336,644.859328 96.715776,644.859328" style="fill: rgb(200, 200, 200); stroke: black; stroke-width: 1" />
	<polygon points="167.054336,416.550336 96.715776,416.550336 167.054336,574.612928" style="fill: rgb(200, 200, 200); stroke: black; stroke-width: 1" />
	<polygon points="96.715776,574.612928 167.054336,574.612928 96.715776,416.550336" style="fill: rgb(200, 200, 200); stroke: black; stroke-width: 1" />
	<polygon points="263.622656,1022.832064 263.622656,671.2027519999999 0.0,671.370688" style="fill: rgb(200, 200, 200); stroke: black; stroke-width: 1" />
	<polygon points="0.0,671.370688 0.0,1023.0 263.622656,1022.832064" style="fill: rgb(200, 200, 200); stroke: black; stroke-width: 1" />
	<polygon points="316.524544,671.2027519999999 316.524544,642.656704 263.770112,671.2027519999999" style="fill: rgb(200, 200, 200); stroke: black; stroke-width: 1" />
	<polygon points="316.524544,642.656704 474.785792,642.656704 527.541248,323.72678399999995" style="fill: rgb(200, 200, 200); stroke: black; stroke-width: 1" />
	<polygon points="474.785792,642.656704 474.785792,671.2027519999999 527.541248,671.2027519999999" style="fill: rgb(200, 200, 200); stroke: black; stroke-width: 1" />
	<polygon points="527.541248,671.2027519999999 527.541248,323.72678399999995 474.785792,642.656704" style="fill: rgb(200, 200, 200); stroke: black; stroke-width: 1" />
	<polygon points="527.541248,323.72678399999995 263.770112,323.72678399999995 316.524544,642.656704" style="fill: rgb(200, 200, 200); stroke: black; stroke-width: 1" />
	<polygon points="263.770112,323.72678399999995 263.770112,671.2027519999999 316.524544,642.656704" style="fill: rgb(200, 200, 200); stroke: black; stroke-width: 1" />
	<polygon points="263.622656,671.2027519999999 263.622656,1022.830016 527.246336,1023.0" style="fill: rgb(200, 200, 200); stroke: black; stroke-width: 1" />
	<polygon points="527.246336,1023.0 527.246336,671.371712 263.622656,671.2027519999999" style="fill: rgb(200, 200, 200); stroke: black; stroke-width: 1" />
	<polygon points="855.36256,512.94048 881.739776,512.94048 881.739776,452.51731199999995" style="fill: rgb(200, 200, 200); stroke: black; stroke-width: 1" />
	<polygon points="881.739776,452.51731199999995 855.36256,452.51731199999995 855.36256,512.94048" style="fill: rgb(200, 200, 200); stroke: black; stroke-width: 1" />
	<polygon points="527.541248,460.186048 543.830016,460.186048 527.541248,407.43161599999996" style="fill: rgb(200, 200, 200); stroke: black; stroke-width: 1" />
	<polygon points="543.830016,460.186048 543.830016,618.44832 785.115136,671.201728" style="fill: rgb(200, 200, 200); stroke: black; stroke-width: 1" />
	<polygon points="543.830016,618.44832 527.541248,618.44832 527.541248,671.201728" style="fill: rgb(200, 200, 200); stroke: black; stroke-width: 1" />
	<polygon points="527.541248,671.201728 785.115136,671.201728 543.830016,618.44832" style="fill: rgb(200, 200, 200); stroke: black; stroke-width: 1" />
	<polygon points="785.115136,671.201728 785.115136,407.43161599999996 543.830016,460.186048" style="fill: rgb(200, 200, 200); stroke: black; stroke-width: 1" />
	<polygon points="785.115136,407.43161599999996 527.541248,407.43161599999996 543.830016,460.186048" style="fill: rgb(200, 200, 200); stroke: black; stroke-width: 1" />
	<polygon points="808.894464,222.79315199999996 808.894464,50.15596800000003 738.555904,50.15596800000003" style="fill: rgb(200, 200, 200); stroke: black; stroke-width: 1" />
	<polygon points="738.555904,50.15596800000003 738.555904,222.79315199999996 808.894464,222.79315199999996" style="fill: rgb(200, 200, 200); stroke: black; stroke-width: 1" />
	<polygon points="883.336192,55.84326399999998 883.336192,231.59238400000004 953.66144,231.63743999999997" style="fill: rgb(200, 200, 200); stroke: black; stroke-width: 1" />
	<polygon points="953.66144,231.63743999999997 953.66144,55.88832000000002 883.336192,55.84326399999998" style="fill: rgb(200, 200, 200); stroke: black; stroke-width: 1" />
	<polygon points="997.189632,1023.0 997.189632,851.283392 926.851072,851.283392" style="fill: rgb(200, 200, 200); stroke: black; stroke-width: 1" />
	<polygon points="926.851072,851.283392 926.851072,1023.0 997.189632,1023.0" style="fill: rgb(200, 200, 200); stroke: black; stroke-width: 1" />
	<polygon points="926.851072,1022.952896 926.851072,847.206848 856.525824,847.249856" style="fill: rgb(200, 200, 200); stroke: black; stroke-width: 1" />
	<polygon points="856.525824,847.249856 856.525824,1023.0 926.851072,1022.952896" style="fill: rgb(200, 200, 200); stroke: black; stroke-width: 1" />
	<polygon points="926.851072,847.159744 926.851072,671.4136960000001 856.525824,671.456704" style="fill: rgb(200, 200, 200); stroke: black; stroke-width: 1" />
	<polygon points="856.525824,671.456704 856.525824,847.206848 926.851072,847.159744" style="fill: rgb(200, 200, 200); stroke: black; stroke-width: 1" />
	<polygon points="597.878784,222.79315199999996 597.878784,50.15596800000003 527.540224,50.15596800000003" style="fill: rgb(200, 200, 200); stroke: black; stroke-width: 1" />
	<polygon points="527.540224,50.15596800000003 527.540224,222.79315199999996 597.878784,222.79315199999996" style="fill: rgb(200, 200, 200); stroke: black; stroke-width: 1" />
	<polygon points="893.165568,495.40857600000004 893.165568,671.157696 963.490816,671.201728" style="fill: rgb(200, 200, 200); stroke: black; stroke-width: 1" />
	<polygon points="963.490816,671.201728 963.490816,495.45363199999997 893.165568,495.40857600000004" style="fill: rgb(200, 200, 200); stroke: black; stroke-width: 1" />
	<polygon points="1024.0,407.433664 1024.0,235.71705599999996 953.66144,235.71705599999996" style="fill: rgb(200, 200, 200); stroke: black; stroke-width: 1" />
	<polygon points="953.66144,235.71705599999996 953.66144,407.433664 1024.0,407.433664" style="fill: rgb(200, 200, 200); stroke: black; stroke-width: 1" />
	<polygon points="997.189632,851.283392 997.189632,679.566784 926.851072,679.566784" style="fill: rgb(200, 200, 200); stroke: black; stroke-width: 1" />
	<polygon points="926.851072,679.566784 926.851072,851.283392 997.189632,851.283392" style="fill: rgb(200, 200, 200); stroke: black; stroke-width: 1" />
	<polygon points="856.523776,1022.952896 856.523776,847.206848 786.199552,847.249856" style="fill: rgb(200, 200, 200); stroke: black; stroke-width: 1" />
	<polygon points="786.199552,847.249856 786.199552,1023.0 856.523776,1022.952896" style="fill: rgb(200, 200, 200); stroke: black; stroke-width: 1" />
	<polygon points="738.555904,222.79315199999996 738.555904,50.158015999999975 668.217344,50.158015999999975" style="fill: rgb(200, 200, 200); stroke: black; stroke-width: 1" />
	<polygon points="668.217344,50.158015999999975 668.217344,222.79315199999996 738.555904,222.79315199999996" style="fill: rgb(200, 200, 200); stroke: black; stroke-width: 1" />
	<polygon points="883.336192,231.638464 883.336192,407.38758399999995 953.660416,407.43264" style="fill: rgb(200, 200, 200); stroke: black; stroke-width: 1" />
	<polygon points="953.660416,407.43264 953.660416,231.68352000000004 883.336192,231.638464" style="fill: rgb(200, 200, 200); stroke: black; stroke-width: 1" />
	<polygon points="419.605504,147.93260799999996 419.605504,323.681728 489.929728,323.72678399999995" style="fill: rgb(200, 200, 200); stroke: black; stroke-width: 1" />
	<polygon points="489.929728,323.72678399999995 489.929728,147.977664 419.605504,147.93260799999996" style="fill: rgb(200, 200, 200); stroke: black; stroke-width: 1" />
	<polygon points="879.234048,222.79315199999996 879.234048,51.07654400000001 808.894464,51.07654400000001" style="fill: rgb(200, 200, 200); stroke: black; stroke-width: 1" />
	<polygon points="808.894464,51.07654400000001 808.894464,222.79315199999996 879.234048,222.79315199999996" style="fill: rgb(200, 200, 200); stroke: black; stroke-width: 1" />
	<polygon points="856.523776,847.159744 856.523776,671.4136960000001 786.199552,671.456704" style="fill: rgb(200, 200, 200); stroke: black; stroke-width: 1" />
	<polygon points="786.199552,671.456704 786.199552,847.206848 856.523776,847.159744" style="fill: rgb(200, 200, 200); stroke: black; stroke-width: 1" />
	<polygon points="668.217344,222.79315199999996 668.217344,50.158015999999975 597.878784,50.158015999999975" style="fill: rgb(200, 200, 200); stroke: black; stroke-width: 1" />
	<polygon points="597.878784,50.158015999999975 597.878784,222.79315199999996 668.217344,222.79315199999996" style="fill: rgb(200, 200, 200); stroke: black; stroke-width: 1" />
	<polygon points="263.163904,75.29619200000002 254.129152,75.29619200000002 254.129152,233.55744000000004" style="fill: rgb(200, 200, 200); stroke: black; stroke-width: 1" />
	<polygon points="254.129152,233.55744000000004 263.163904,233.55744000000004 263.163904,75.29619200000002" style="fill: rgb(200, 200, 200); stroke: black; stroke-width: 1" />
	<polygon points="883.336192,240.379328 793.96864,240.379328 868.898816,275.54656" style="fill: rgb(200, 200, 200); stroke: black; stroke-width: 1" />
	<polygon points="793.96864,240.379328 793.96864,257.96448 868.898816,275.54656" style="fill: rgb(200, 200, 200); stroke: black; stroke-width: 1" />
	<polygon points="793.96864,257.96448 769.12128,257.96448 769.12128,407.433664" style="fill: rgb(200, 200, 200); stroke: black; stroke-width: 1" />
	<polygon points="769.12128,407.433664 883.336192,407.433664 868.898816,275.54656" style="fill: rgb(200, 200, 200); stroke: black; stroke-width: 1" />
	<polygon points="883.336192,407.433664 883.336192,283.89113599999996 868.898816,275.54656" style="fill: rgb(200, 200, 200); stroke: black; stroke-width: 1" />
	<polygon points="868.898816,275.54656 883.336192,250.52716799999996 883.336192,240.379328" style="fill: rgb(200, 200, 200); stroke: black; stroke-width: 1" />
	<polygon points="868.898816,275.54656 793.96864,257.96448 769.12128,407.433664" style="fill: rgb(200, 200, 200); stroke: black; stroke-width: 1" />
	<polygon points="641.75616,257.96448 616.906752,257.96448 641.75616,407.433664" style="fill: rgb(200, 200, 200); stroke: black; stroke-width: 1" />
	<polygon points="616.906752,257.96448 616.906752,240.379328 541.976576,275.54656" style="fill: rgb(200, 200, 200); stroke: black; stroke-width: 1" />
	<polygon points="616.906752,240.379328 527.541248,240.379328 541.976576,275.54656" style="fill: rgb(200, 200, 200); stroke: black; stroke-width: 1" />
	<polygon points="527.541248,240.379328 527.541248,250.52716799999996 541.976576,275.54656" style="fill: rgb(200, 200, 200); stroke: black; stroke-width: 1" />
	<polygon points="541.976576,275.54656 527.541248,283.89113599999996 527.541248,407.433664" style="fill: rgb(200, 200, 200); stroke: black; stroke-width: 1" />
	<polygon points="527.541248,407.433664 641.75616,407.433664 541.976576,275.54656" style="fill: rgb(200, 200, 200); stroke: black; stroke-width: 1" />
	<polygon points="641.75616,407.433664 616.906752,257.96448 541.976576,275.54656" style="fill: rgb(200, 200, 200); stroke: black; stroke-width: 1" />
	<polygon points="0.0,319.95948799999996 109.980672,319.95948799999996 109.980672,161.69824000000006" style="fill: rgb(200, 200, 200); stroke: black; stroke-width: 1" />
	<polygon points="109.980672,161.69824000000006 0.0,161.69824000000006 0.0,319.95948799999996" style="fill: rgb(200, 200, 200); stroke: black; stroke-width: 1" />
	<polygon points="597.494784,688.890304 527.246336,688.890304 527.246336,759.2298880000001" style="fill: rgb(200, 200, 200); stroke: black; stroke-width: 1" />
	<polygon points="527.246336,759.2298880000001 597.494784,759.2298880000001 597.494784,688.890304" style="fill: rgb(200, 200, 200); stroke: black; stroke-width: 1" />
	<polygon points="597.494784,688.8913279999999 597.494784,759.2298880000001 667.743232,759.2298880000001" style="fill: rgb(200, 200, 200); stroke: black; stroke-width: 1" />
	<polygon points="667.743232,759.2298880000001 667.743232,688.8913279999999 597.494784,688.8913279999999" style="fill: rgb(200, 200, 200); stroke: black; stroke-width: 1" />
	<polygon points="785.115136,512.94048 855.363584,512.94048 855.363584,442.60089600000003" style="fill: rgb(200, 200, 200); stroke: black; stroke-width: 1" />
	<polygon points="855.363584,442.60089600000003 785.115136,442.60089600000003 785.115136,512.94048" style="fill: rgb(200, 200, 200); stroke: black; stroke-width: 1" />
	<polygon points="737.99168,759.2298880000001 737.99168,688.890304 667.744256,688.890304" style="fill: rgb(200, 200, 200); stroke: black; stroke-width: 1" />
	<polygon points="667.744256,688.890304 667.744256,759.2298880000001 737.99168,759.2298880000001" style="fill: rgb(200, 200, 200); stroke: black; stroke-width: 1" />
	<polygon points="886.226944,638.991808 886.226944,545.1504 862.716928,520.281536" style="fill: rgb(200, 200, 200); stroke: black; stroke-width: 1" />
	<polygon points="893.165568,646.333888 893.165568,537.80832 886.226944,545.1504" style="fill: rgb(200, 200, 200); stroke: black; stroke-width: 1" />
	<polygon points="886.226944,545.1504 886.226944,638.991808 893.165568,646.333888" style="fill: rgb(200, 200, 200); stroke: black; stroke-width: 1" />
	<polygon points="862.716928,520.281536 862.716928,663.860672 886.226944,638.991808" style="fill: rgb(200, 200, 200); stroke: black; stroke-width: 1" />
	<polygon points="785.115136,671.201728 869.658624,671.201728 862.716928,663.860672" style="fill: rgb(200, 200, 200); stroke: black; stroke-width: 1" />
	<polygon points="862.716928,520.281536 785.115136,512.94048 785.115136,671.201728" style="fill: rgb(200, 200, 200); stroke: black; stroke-width: 1" />
	<polygon points="862.716928,520.281536 869.658624,512.94048 785.115136,512.94048" style="fill: rgb(200, 200, 200); stroke: black; stroke-width: 1" />
	<polygon points="785.115136,671.201728 862.716928,663.860672 862.716928,520.281536" style="fill: rgb(200, 200, 200); stroke: black; stroke-width: 1" />
	<polygon points="770.605056,257.96448 793.96864,257.96448 793.96864,240.379328" style="fill: rgb(200, 200, 200); stroke: black; stroke-width: 1" />
	<polygon points="793.96864,240.379328 801.022976,240.379328 801.022976,222.79315199999996" style="fill: rgb(200, 200, 200); stroke: black; stroke-width: 1" />
	<polygon points="801.022976,222.79315199999996 770.605056,222.79315199999996 793.96864,240.379328" style="fill: rgb(200, 200, 200); stroke: black; stroke-width: 1" />
	<polygon points="770.605056,222.79315199999996 770.605056,257.96448 793.96864,240.379328" style="fill: rgb(200, 200, 200); stroke: black; stroke-width: 1" />
	<polygon points="297.298944,126.68768 306.76992,95.11673599999995 285.161472,107.42624" style="fill: rgb(200, 200, 200); stroke: black; stroke-width: 1" />
	<polygon points="263.770112,119.01177600000005 306.76992,165.464512 297.298944,126.68768" style="fill: rgb(200, 200, 200); stroke: black; stroke-width: 1" />
	<polygon points="285.161472,107.42624 273.425408,86.82438400000001 263.770112,119.01177600000005" style="fill: rgb(200, 200, 200); stroke: black; stroke-width: 1" />
	<polygon points="263.770112,119.01177600000005 297.298944,126.68768 285.161472,107.42624" style="fill: rgb(200, 200, 200); stroke: black; stroke-width: 1" />
	<polygon points="403.203072,323.72678399999995 403.203072,298.85792000000004 263.769088,323.72678399999995" style="fill: rgb(200, 200, 200); stroke: black; stroke-width: 1" />
	<polygon points="403.203072,298.85792000000004 419.605504,298.85792000000004 419.605504,190.33337600000004" style="fill: rgb(200, 200, 200); stroke: black; stroke-width: 1" />
	<polygon points="419.605504,190.33337600000004 403.203072,190.33337600000004 403.203072,298.85792000000004" style="fill: rgb(200, 200, 200); stroke: black; stroke-width: 1" />
	<polygon points="403.203072,190.33337600000004 403.203072,165.464512 263.769088,165.464512" style="fill: rgb(200, 200, 200); stroke: black; stroke-width: 1" />
	<polygon points="263.769088,165.464512 263.769088,323.72678399999995 403.203072,298.85792000000004" style="fill: rgb(200, 200, 200); stroke: black; stroke-width: 1" />
	<polygon points="403.203072,298.85792000000004 403.203072,190.33337600000004 263.769088,165.464512" style="fill: rgb(200, 200, 200); stroke: black; stroke-width: 1" />
	<polygon points="109.98272,319.95948799999996 218.958848,319.95948799999996 218.958848,161.69824000000006" style="fill: rgb(200, 200, 200); stroke: black; stroke-width: 1" />
	<polygon points="218.958848,161.69824000000006 109.98272,161.69824000000006 109.98272,319.95948799999996" style="fill: rgb(200, 200, 200); stroke: black; stroke-width: 1" />
	<polygon points="609.85344,240.379328 616.906752,240.379328 609.85344,222.79315199999996" style="fill: rgb(200, 200, 200); stroke: black; stroke-width: 1" />
	<polygon points="616.906752,240.379328 616.906752,257.96448 640.273408,257.96448" style="fill: rgb(200, 200, 200); stroke: black; stroke-width: 1" />
	<polygon points="640.273408,257.96448 640.273408,222.79315199999996 616.906752,240.379328" style="fill: rgb(200, 200, 200); stroke: black; stroke-width: 1" />
	<polygon points="640.273408,222.79315199999996 609.85344,222.79315199999996 616.906752,240.379328" style="fill: rgb(200, 200, 200); stroke: black; stroke-width: 1" />
	<polygon points="904.727552,465.47295999999994 883.336192,453.8864 892.991488,486.073792" style="fill: rgb(200, 200, 200); stroke: black; stroke-width: 1" />
	<polygon points="916.865024,446.21049600000003 926.334976,407.433664 883.336192,453.8864" style="fill: rgb(200, 200, 200); stroke: black; stroke-width: 1" />
	<polygon points="904.727552,465.47295999999994 926.334976,477.78144 916.865024,446.21049600000003" style="fill: rgb(200, 200, 200); stroke: black; stroke-width: 1" />
	<polygon points="916.865024,446.21049600000003 883.336192,453.8864 904.727552,465.47295999999994" style="fill: rgb(200, 200, 200); stroke: black; stroke-width: 1" />
	<polygon points="254.129152,209.66751999999997 236.542976,209.66751999999997 236.542976,233.55846399999996" style="fill: rgb(200, 200, 200); stroke: black; stroke-width: 1" />
	<polygon points="236.542976,233.55846399999996 254.129152,233.55846399999996 254.129152,209.66751999999997" style="fill: rgb(200, 200, 200); stroke: black; stroke-width: 1" />
	<polygon points="218.958848,177.28864 218.958848,202.04691200000002 236.542976,202.04691200000002" style="fill: rgb(200, 200, 200); stroke: black; stroke-width: 1" />
	<polygon points="236.542976,202.04691200000002 236.542976,209.66751999999997 254.129152,209.66751999999997" style="fill: rgb(200, 200, 200); stroke: black; stroke-width: 1" />
	<polygon points="254.129152,209.66751999999997 254.129152,177.28864 236.542976,202.04691200000002" style="fill: rgb(200, 200, 200); stroke: black; stroke-width: 1" />
	<polygon points="254.129152,177.28864 218.958848,177.28864 236.542976,202.04691200000002" style="fill: rgb(200, 200, 200); stroke: black; stroke-width: 1" />
	<polygon points="507.515904,250.69920000000002 507.515904,258.31980799999997 525.101056,250.69920000000002" style="fill: rgb(200, 200, 200); stroke: black; stroke-width: 1" />
	<polygon points="507.515904,258.31980799999997 489.931776,258.31980799999997 489.931776,283.07808" style="fill: rgb(200, 200, 200); stroke: black; stroke-width: 1" />
	<polygon points="489.931776,283.07808 525.101056,283.07808 507.515904,258.31980799999997" style="fill: rgb(200, 200, 200); stroke: black; stroke-width: 1" />
	<polygon points="525.101056,283.07808 525.101056,250.69920000000002 507.515904,258.31980799999997" style="fill: rgb(200, 200, 200); stroke: black; stroke-width: 1" />
	<polygon points="525.101056,226.80825600000003 507.515904,226.80825600000003 507.515904,250.69920000000002" style="fill: rgb(200, 200, 200); stroke: black; stroke-width: 1" />
	<polygon points="507.515904,250.69920000000002 525.101056,250.69920000000002 525.101056,226.80825600000003" style="fill: rgb(200, 200, 200); stroke: black; stroke-width: 1" />
	<polygon points="771.697664,710.9175680000001 782.546944,672.8278399999999 737.99168,717.073856" style="fill: rgb(200, 200, 200); stroke: black; stroke-width: 1" />
	<polygon points="737.99168,717.073856 749.002752,759.230912 771.697664,710.9175680000001" style="fill: rgb(200, 200, 200); stroke: black; stroke-width: 1" />
	<polygon points="749.002752,759.230912 782.546944,752.455104 771.697664,710.9175680000001" style="fill: rgb(200, 200, 200); stroke: black; stroke-width: 1" />
	<polygon points="705.437696,222.79315199999996 705.437696,257.96448 770.605056,257.96448" style="fill: rgb(200, 200, 200); stroke: black; stroke-width: 1" />
	<polygon points="770.605056,257.96448 770.605056,222.79315199999996 705.437696,222.79315199999996" style="fill: rgb(200, 200, 200); stroke: black; stroke-width: 1" />
	<polygon points="525.101056,283.07808 489.931776,283.07808 489.931776,323.72678399999995" style="fill: rgb(200, 200, 200); stroke: black; stroke-width: 1" />
	<polygon points="489.931776,323.72678399999995 525.101056,323.72678399999995 525.101056,283.07808" style="fill: rgb(200, 200, 200); stroke: black; stroke-width: 1" />
	<polygon points="640.273408,222.79315199999996 640.273408,257.96448 705.439744,257.96448" style="fill: rgb(200, 200, 200); stroke: black; stroke-width: 1" />
	<polygon points="705.439744,257.96448 705.439744,222.79315199999996 640.273408,222.79315199999996" style="fill: rgb(200, 200, 200); stroke: black; stroke-width: 1" />
	<polygon points="218.957824,275.71449600000005 263.514112,319.960512 252.663808,281.87078399999996" style="fill: rgb(200, 200, 200); stroke: black; stroke-width: 1" />
	<polygon points="252.663808,281.87078399999996 263.514112,240.33632 229.968896,233.55846399999996" style="fill: rgb(200, 200, 200); stroke: black; stroke-width: 1" />
	<polygon points="229.968896,233.55846399999996 218.957824,275.71449600000005 252.663808,281.87078399999996" style="fill: rgb(200, 200, 200); stroke: black; stroke-width: 1" />
	<polygon points="254.129152,136.64095999999995 218.958848,136.64095999999995 218.958848,177.28864" style="fill: rgb(200, 200, 200); stroke: black; stroke-width: 1" />
	<polygon points="218.958848,177.28864 254.129152,177.28864 254.129152,136.64095999999995" style="fill: rgb(200, 200, 200); stroke: black; stroke-width: 1" />
</svg>
